<svg width="33" height="23" viewBox="0 0 33 23" fill="none" xmlns="http://www.w3.org/2000/svg">
<path d="M16.5 0.5625C9.20831 0.5625 2.98123 5.09792 0.458313 11.5C2.98123 17.9021 9.20831 22.4375 16.5 22.4375C23.7916 22.4375 30.0187 17.9021 32.5416 11.5C30.0187 5.09792 23.7916 0.5625 16.5 0.5625ZM16.5 18.7917C12.475 18.7917 9.20831 15.525 9.20831 11.5C9.20831 7.475 12.475 4.20833 16.5 4.20833C20.525 4.20833 23.7916 7.475 23.7916 11.5C23.7916 15.525 20.525 18.7917 16.5 18.7917ZM16.5 7.125C14.0791 7.125 12.125 9.07917 12.125 11.5C12.125 13.9208 14.0791 15.875 16.5 15.875C18.9208 15.875 20.875 13.9208 20.875 11.5C20.875 9.07917 18.9208 7.125 16.5 7.125Z" fill="#C4C4C4"/>
</svg>
